<?xml version="1.0" encoding="UTF-8" standalone="no"?>
<!DOCTYPE svg PUBLIC "-//W3C//DTD SVG 1.1//EN" "http://www.w3.org/Graphics/SVG/1.1/DTD/svg11.dtd">
<svg width="100%" height="100%" viewBox="0 0 687 200" version="1.1" xmlns="http://www.w3.org/2000/svg" xmlns:xlink="http://www.w3.org/1999/xlink" xml:space="preserve" xmlns:serif="http://www.serif.com/" style="fill-rule:evenodd;clip-rule:evenodd;stroke-linejoin:round;stroke-miterlimit:2;">
    <g id="Screenshot_from_2026-05-06_12-29-22.png">
        <path d="M23.984,72.45C24.057,68.173 24.031,53.769 24.034,27.5C24.035,24.301 23.299,22.88 26.505,22.965C29.389,23.042 29.385,23.034 81.5,23.034C110.886,23.034 111.024,22.97 111.517,23.483C112.124,24.114 111.966,24.543 111.966,31.5C111.966,46.742 111.873,46.882 112.483,47.517C113.112,48.171 113.29,47.859 131.495,47.965C133.138,47.975 133.561,47.795 133.919,49.396C134.015,49.827 133.921,66.878 134.016,72.45C133.524,72.639 133.614,73.126 131.479,73.034C124.714,72.745 95.614,72.945 92.495,72.966C90.698,72.979 90.501,73.734 90.197,73.851C89.96,73.73 89.855,73.422 89.618,73.301C88.846,72.91 88.796,72.965 72.5,72.966C72.263,72.966 69.583,72.966 69.533,72.974C68.252,73.176 67.961,73.771 67.803,73.851C67.499,73.734 67.302,72.979 65.505,72.966C62.386,72.945 33.286,72.745 26.521,73.034C24.386,73.126 24.476,72.639 23.984,72.45Z" style="fill:rgb(215,95,135);"/>
        <path d="M551.984,72.45C552.046,68.823 552.034,62.049 552.034,27.5C552.034,24.383 551.36,23.082 554.488,23.035C557.728,22.986 631.272,23.131 637.495,22.965C640.701,22.88 639.965,24.301 639.966,27.5C639.968,46.322 639.952,46.325 639.983,46.448C640.401,48.081 640.794,47.939 642.488,47.965C660.313,48.233 661.412,47.126 661.919,49.396C662.015,49.827 661.921,66.882 662.016,72.45C661.524,72.639 661.614,73.126 659.479,73.034C652.714,72.745 623.614,72.945 620.495,72.966C618.698,72.979 618.501,73.734 618.197,73.851C617.96,73.73 617.855,73.422 617.618,73.301C616.846,72.91 616.796,72.965 600.5,72.966C600.263,72.966 597.583,72.966 597.533,72.974C596.252,73.176 595.961,73.771 595.803,73.851C595.499,73.734 595.302,72.979 593.505,72.966C590.386,72.945 561.286,72.745 554.521,73.034C552.386,73.126 552.476,72.639 551.984,72.45Z" style="fill:rgb(215,95,135);"/>
        <path d="M419.984,72.45C420.476,72.639 420.386,73.126 422.521,73.034C424.54,72.948 456.48,72.896 460.499,73.035C462.254,73.096 462.221,73.208 463.911,73.604C464.067,75.998 464.032,75.997 464.035,93.5C464.035,96.699 463.299,98.119 466.505,98.034C474.011,97.835 473.989,97.966 481.5,97.965C484.699,97.965 486.119,98.701 486.034,95.495C485.985,93.652 485.879,89.654 485.984,72.45C486.114,72.5 486.117,73.152 489.501,73.035C493.52,72.896 525.46,72.948 527.479,73.034C529.614,73.126 529.524,72.639 530.016,72.45C530.027,74.288 530.092,97.374 529.966,97.5C529.324,98.142 528.261,98.032 511.5,98.035C508.864,98.035 507.982,97.869 507.966,100.505C507.938,105.254 508.017,122.449 507.966,122.5C507.393,123.073 507.109,122.966 494.5,122.966C465.579,122.966 465.581,122.964 465.534,122.974C465.403,123.002 465.415,123.012 463.925,123.479C463.713,123.412 463.712,123.033 463.5,122.966C463.195,122.869 463.187,123.035 459.5,123.035C424.505,123.033 424.508,122.888 421.466,122.949C421.43,122.95 421.49,123.044 421.456,123.056C421.338,123.096 421.346,123.09 419.969,123.522C419.965,119.436 419.927,81.765 419.984,72.45Z" style="fill:rgb(118,118,118);"/>
        <path d="M200.415,122.618C200.804,122.696 201.144,122.949 201.533,123.026C201.604,123.04 220.384,123.037 220.467,123.026C220.86,122.973 221.191,122.671 221.585,122.618C223.528,122.971 223.522,122.965 225.5,122.966C264.216,122.967 264.22,122.945 264.544,123.056C264.544,123.056 265.912,123.485 266.031,123.522C265.898,129.607 266.028,146.118 265.919,146.604C265.561,148.205 265.138,148.025 263.495,148.035C245.29,148.141 245.112,147.829 244.483,148.483C243.873,149.118 243.966,149.258 243.966,164.5C243.966,169.37 244.093,171.963 243.517,172.517C242.896,173.114 242.747,172.966 234.5,172.966C179.635,172.966 179.633,172.972 179.396,172.919C177.795,172.561 177.975,172.138 177.965,170.495C177.841,149.236 178.122,149.064 177.517,148.483C176.872,147.864 176.727,147.969 159.5,147.966C156.839,147.965 155.895,148.153 155.965,145.495C156.068,141.628 156.107,129.833 155.969,123.522C157.346,123.09 157.338,123.096 157.456,123.056C157.761,122.951 157.76,122.966 175.5,122.966C198.195,122.966 198.188,123.022 200.415,122.618Z" style="fill:rgb(0,175,95);"/>
        <path d="M155.984,72.45C156.205,59.528 156.012,52.26 155.965,50.505C155.88,47.299 157.301,48.035 160.5,48.034C176.102,48.032 177.326,48.139 177.965,47.5C178.123,47.342 177.956,24.955 178.081,24.396C178.499,22.524 180.889,23.034 183.5,23.034C242.366,23.034 242.368,23.028 242.604,23.081C244.205,23.439 244.025,23.862 244.035,25.505C244.159,46.764 243.878,46.936 244.483,47.517C245.128,48.136 245.273,48.031 262.5,48.034C265.161,48.035 266.105,47.847 266.035,50.505C265.728,62.063 266.19,62.052 265.911,73.604C264.221,73.208 264.254,73.096 262.499,73.035C260.753,72.975 260.755,72.964 225.5,72.966C224.571,72.966 224.576,72.966 224.495,72.966C222.673,72.985 222.522,73.726 222.197,73.851C221.96,73.73 221.855,73.422 221.618,73.301C220.846,72.91 220.796,72.965 204.5,72.966C204.263,72.966 201.583,72.966 201.533,72.974C200.252,73.176 199.961,73.771 199.803,73.851C199.499,73.734 199.302,72.979 197.505,72.966C194.386,72.945 165.286,72.745 158.521,73.034C156.386,73.126 156.476,72.639 155.984,72.45Z" style="fill:rgb(215,95,135);"/>
        <path d="M419.984,72.45C420.055,68.295 420.034,50.572 420.035,50.488C420.083,47.298 421.861,48.034 425.5,48.034C439.951,48.034 441.331,48.134 441.965,47.5C442.055,47.41 442.032,42.997 442.034,27.5C442.035,24.301 441.299,22.88 444.505,22.965C451.874,23.161 451.87,23.027 503.5,23.034C506.682,23.035 508.016,22.339 508.035,25.505C508.159,46.764 507.878,46.936 508.483,47.517C509.118,48.127 509.258,48.034 524.5,48.034C527.111,48.034 529.501,47.524 529.919,49.396C530.015,49.827 529.921,66.878 530.016,72.45C529.524,72.639 529.614,73.126 527.479,73.034C525.46,72.948 493.52,72.896 489.501,73.035C486.117,73.152 486.114,72.5 485.984,72.45C485.924,59.788 485.993,52.371 485.965,50.488C485.939,48.794 486.081,48.401 484.448,47.983C483.641,47.777 467.924,48.014 466.488,48.035C464.794,48.061 464.401,47.919 463.983,49.552C463.919,49.802 464.035,68.46 463.911,73.604C462.221,73.208 462.254,73.096 460.499,73.035C456.48,72.896 424.54,72.948 422.521,73.034C420.386,73.126 420.476,72.639 419.984,72.45Z" style="fill:rgb(215,95,135);"/>
        <path d="M331.964,71.505C332.331,71.848 331.962,73.01 334.507,73.034C335.941,73.047 351.684,73.196 352.431,73.007C353.219,72.806 353.458,72.582 353.528,72.517C353.958,72.115 353.606,71.908 354.036,71.505L354.076,72.521C354.396,72.709 354.412,73.234 354.732,73.422C354.857,73.495 354.853,73.395 356.51,73.034C360.184,72.908 374.515,72.974 374.548,72.987C375.022,73.17 375.329,73.668 375.803,73.851C375.886,74.696 375.976,74.672 375.966,75.511C375.966,75.531 375.964,121.475 375.967,121.496C376.025,121.895 376.358,122.22 376.415,122.618C374.685,122.932 374.698,122.945 374.546,122.957C374.363,122.972 354.52,122.963 354.5,122.966C354.161,123.017 353.91,123.356 353.571,123.407C353.347,123.359 352.927,122.922 351.496,122.966C344.813,123.171 334.097,122.937 333.423,123.058C333.078,123.121 332.78,123.424 332.429,123.407C332.086,123.391 331.842,122.982 331.5,122.966C311.838,122.965 311.844,123.028 309.585,122.618C309.642,122.22 309.975,121.895 310.033,121.496C310.036,121.475 310.034,75.531 310.034,75.511C310.024,74.672 310.114,74.696 310.197,73.851C310.671,73.668 310.978,73.17 311.452,72.987C311.485,72.974 325.816,72.908 329.49,73.034C331.147,73.395 331.143,73.495 331.268,73.422C331.588,73.234 331.604,72.709 331.924,72.521L331.964,71.505Z" style="fill:rgb(118,118,118);"/>
        <path d="M419.969,123.522C421.346,123.09 421.338,123.096 421.456,123.056C421.49,123.044 421.43,122.95 421.466,122.949C424.508,122.888 424.505,123.033 459.5,123.035C463.187,123.035 463.195,122.869 463.5,122.966C463.712,123.033 463.713,123.412 463.925,123.479C464.183,136.379 463.897,136.364 464.035,145.512C464.061,147.206 463.919,147.599 465.552,148.017C465.679,148.049 493.027,148.03 525.5,148.034C528.699,148.035 530.12,147.299 530.035,150.505C529.938,154.161 529.968,154.148 529.966,168.5C529.965,171.699 530.701,173.12 527.495,173.035C521.272,172.869 447.728,173.014 444.488,172.965C442.794,172.94 442.4,173.081 441.983,171.448C441.925,171.222 442.024,149.866 441.918,149.396C441.412,147.128 440.313,148.234 422.488,147.965C420.794,147.94 420.4,148.081 419.983,146.448C419.957,146.35 420.172,132.834 419.969,123.522Z" style="fill:rgb(0,175,95);"/>
        <path d="M23.984,72.45C24.476,72.639 24.386,73.126 26.521,73.034C33.286,72.745 62.386,72.945 65.505,72.966C67.302,72.979 67.499,73.734 67.803,73.851C67.885,74.683 67.973,74.656 67.966,75.511C67.966,75.541 67.966,77.341 67.966,77.5C67.961,122.277 67.988,122.276 68.031,123.522C67.992,123.51 67.986,123.445 67.948,123.433C66.263,122.905 66.26,122.965 64.5,122.966C25.788,122.967 25.784,122.944 25.456,123.056C25.338,123.096 25.346,123.09 23.969,123.522C23.965,119.436 23.927,81.765 23.984,72.45Z" style="fill:rgb(118,118,118);"/>
        <path d="M134.016,72.45C134.073,81.766 134.035,119.436 134.031,123.522C133.992,123.51 133.986,123.445 133.948,123.433C132.263,122.905 132.26,122.965 130.5,122.966C91.788,122.967 91.784,122.944 91.456,123.056C91.338,123.096 91.346,123.09 89.969,123.522C90.036,121.571 90.034,119.822 90.034,119.5C90.034,119.21 90.035,75.632 90.034,75.511C90.027,74.656 90.115,74.683 90.197,73.851C90.501,73.734 90.698,72.979 92.495,72.966C95.614,72.945 124.714,72.745 131.479,73.034C133.614,73.126 133.524,72.639 134.016,72.45Z" style="fill:rgb(118,118,118);"/>
        <path d="M551.984,72.45C552.476,72.639 552.386,73.126 554.521,73.034C561.286,72.745 590.386,72.945 593.505,72.966C595.302,72.979 595.499,73.734 595.803,73.851C595.885,74.683 595.973,74.656 595.966,75.511C595.965,75.632 595.966,119.21 595.966,119.5C595.966,119.822 595.964,121.571 596.031,123.522C595.992,123.51 595.986,123.445 595.948,123.433C594.263,122.905 594.26,122.965 592.5,122.966C553.788,122.967 553.784,122.944 553.456,123.056C553.456,123.056 552.088,123.485 551.969,123.522C551.965,119.436 551.927,81.765 551.984,72.45Z" style="fill:rgb(118,118,118);"/>
        <path d="M662.016,72.45C662.073,81.766 662.035,119.436 662.031,123.522C661.992,123.51 661.986,123.445 661.948,123.433C660.263,122.905 660.26,122.965 658.5,122.966C619.788,122.967 619.784,122.944 619.456,123.056C619.456,123.056 618.088,123.485 617.969,123.522C618.012,122.276 618.039,122.277 618.034,77.5C618.034,75.66 618.035,75.67 618.034,75.511C618.027,74.656 618.115,74.683 618.197,73.851C618.501,73.734 618.698,72.979 620.495,72.966C623.614,72.945 652.714,72.745 659.479,73.034C661.614,73.126 661.524,72.639 662.016,72.45Z" style="fill:rgb(118,118,118);"/>
        <path d="M155.984,72.45C156.476,72.639 156.386,73.126 158.521,73.034C165.286,72.745 194.386,72.945 197.505,72.966C199.302,72.979 199.499,73.734 199.803,73.851C199.886,74.696 199.976,74.672 199.966,75.511C199.966,75.531 199.964,121.475 199.967,121.496C200.025,121.895 200.358,122.22 200.415,122.618C198.188,123.022 198.195,122.966 175.5,122.966C157.76,122.966 157.761,122.951 157.456,123.056C157.338,123.096 157.346,123.09 155.969,123.522C155.965,119.436 155.927,81.765 155.984,72.45Z" style="fill:rgb(118,118,118);"/>
        <path d="M222.197,73.851C222.522,73.726 222.673,72.985 224.495,72.966C224.576,72.966 224.571,72.966 225.5,72.966C260.755,72.964 260.753,72.975 262.499,73.035C264.254,73.096 264.221,73.208 265.911,73.604C266.077,79.371 265.851,118.261 266.031,123.522C265.912,123.485 264.544,123.056 264.544,123.056C264.22,122.945 264.216,122.967 225.5,122.966C223.522,122.965 223.528,122.971 221.585,122.618C221.642,122.22 221.975,121.895 222.033,121.496C222.036,121.475 222.034,75.531 222.034,75.511C222.024,74.672 222.114,74.696 222.197,73.851Z" style="fill:rgb(118,118,118);"/>
        <path d="M23.969,123.522C25.346,123.09 25.338,123.096 25.456,123.056C25.784,122.944 25.788,122.967 64.5,122.966C66.26,122.965 66.263,122.905 67.948,123.433C67.986,123.445 67.992,123.51 68.031,123.522C67.938,127.791 67.97,135.81 67.966,168.5C67.965,171.699 68.701,173.12 65.495,173.035C59.624,172.879 59.644,172.97 28.5,172.966C25.301,172.965 23.88,173.701 23.965,170.495C24.082,166.109 24.083,128.749 23.969,123.522Z" style="fill:rgb(0,175,95);"/>
        <path d="M89.969,123.522C91.346,123.09 91.338,123.096 91.456,123.056C91.784,122.944 91.788,122.967 130.5,122.966C132.26,122.965 132.263,122.905 133.948,123.433C133.986,123.445 133.992,123.51 134.031,123.522C133.958,125.727 133.966,125.724 133.966,167.5C133.966,170.111 134.476,172.501 132.604,172.919C132.366,172.972 132.361,172.966 95.5,172.966C92.889,172.966 90.499,173.476 90.081,171.604C89.949,171.014 90.128,130.807 89.969,123.522Z" style="fill:rgb(0,175,95);"/>
        <path d="M551.969,123.522C552.088,123.485 553.456,123.056 553.456,123.056C553.784,122.944 553.788,122.967 592.5,122.966C594.26,122.965 594.263,122.905 595.948,123.433C595.986,123.445 595.992,123.51 596.031,123.522C595.872,130.807 596.051,171.014 595.919,171.604C595.501,173.476 593.111,172.966 590.5,172.966C553.639,172.966 553.634,172.972 553.396,172.919C551.524,172.501 552.034,170.111 552.034,167.5C552.034,125.724 552.042,125.727 551.969,123.522Z" style="fill:rgb(0,175,95);"/>
        <path d="M617.969,123.522C618.088,123.485 619.456,123.056 619.456,123.056C619.784,122.944 619.788,122.967 658.5,122.966C660.26,122.965 660.263,122.905 661.948,123.433C661.986,123.445 661.992,123.51 662.031,123.522C661.917,128.749 661.918,166.109 662.035,170.495C662.12,173.701 660.699,172.965 657.5,172.966C626.357,172.97 626.377,172.879 620.505,173.035C617.299,173.12 618.035,171.699 618.034,168.5C618.03,135.81 618.062,127.791 617.969,123.522Z" style="fill:rgb(0,175,95);"/>
        <path d="M376.415,122.618C376.809,122.671 377.14,122.973 377.533,123.026C377.798,123.062 396.168,122.983 396.604,123.081C398.476,123.499 397.966,125.889 397.966,128.5C397.966,171.363 397.972,171.367 397.919,171.604C397.501,173.476 395.111,172.966 392.5,172.966C355.639,172.966 355.634,172.972 355.396,172.919C353.524,172.501 354.034,170.111 354.034,167.5C354.034,153.167 354.034,138.833 354.034,124.5C354.045,123.974 354.285,123.976 354.075,123.479C353.952,123.191 353.695,123.699 353.571,123.407C353.91,123.356 354.161,123.017 354.5,122.966C354.52,122.963 374.363,122.972 374.546,122.957C374.698,122.945 374.685,122.932 376.415,122.618Z" style="fill:rgb(0,175,95);"/>
        <path d="M309.585,122.618C311.844,123.028 311.838,122.965 331.5,122.966C331.564,123.179 331.861,123.267 331.925,123.479C331.971,123.63 331.966,123.634 331.966,167.5C331.966,170.111 332.476,172.501 330.604,172.919C330.366,172.972 330.361,172.966 293.5,172.966C290.889,172.966 288.499,173.476 288.081,171.604C288.028,171.367 288.034,171.363 288.034,128.5C288.034,125.889 287.524,123.499 289.396,123.081C289.832,122.983 308.202,123.062 308.467,123.026C308.86,122.973 309.191,122.671 309.585,122.618Z" style="fill:rgb(0,175,95);"/>
        <path d="M331.964,71.505L331.924,72.521C331.113,72.692 330.301,72.863 329.49,73.034C325.816,72.908 311.485,72.974 311.452,72.987C310.978,73.17 310.671,73.668 310.197,73.851C309.96,73.73 309.855,73.422 309.618,73.301C308.842,72.908 308.791,72.966 292.5,72.966C289.383,72.966 288.082,73.64 288.035,70.512C287.982,66.988 288.137,31.98 287.965,25.505C287.88,22.299 289.301,23.035 292.5,23.034C323.643,23.03 323.623,23.121 329.495,22.965C332.701,22.88 331.965,24.301 331.966,27.5C331.965,42.168 331.964,56.837 331.964,71.505Z" style="fill:rgb(215,95,135);"/>
        <path d="M354.036,71.505C354.036,56.837 354.035,42.168 354.034,27.5C354.035,24.301 353.299,22.88 356.505,22.965C362.376,23.121 362.356,23.03 393.5,23.034C396.699,23.035 398.12,22.299 398.035,25.505C397.863,31.98 398.018,66.988 397.965,70.512C397.918,73.64 396.617,72.966 393.5,72.966C377.209,72.966 377.158,72.908 376.382,73.301C376.145,73.422 376.04,73.73 375.803,73.851C375.329,73.668 375.022,73.17 374.548,72.987C374.515,72.974 360.184,72.908 356.51,73.034C355.699,72.863 354.887,72.692 354.076,72.521L354.036,71.505Z" style="fill:rgb(215,95,135);"/>
        <path d="M331.924,72.521C331.604,72.709 331.588,73.234 331.268,73.422C331.143,73.495 331.147,73.395 329.49,73.034C330.301,72.863 331.113,72.692 331.924,72.521Z" style="fill:rgb(164,107,126);"/>
        <path d="M354.076,72.521C354.887,72.692 355.699,72.863 356.51,73.034C354.853,73.395 354.857,73.495 354.732,73.422C354.412,73.234 354.396,72.709 354.076,72.521Z" style="fill:rgb(164,107,126);"/>
    </g>
</svg>
